<mxfile host="65bd71144e">
    <diagram id="bBDR8_WNHgH3ZnMzrf8L" name="Page-1">
        <mxGraphModel dx="7297" dy="7086" grid="0" gridSize="10" guides="1" tooltips="1" connect="1" arrows="1" fold="1" page="0" pageScale="1" pageWidth="850" pageHeight="1100" background="#B0E3E6" math="0" shadow="0">
            <root>
                <mxCell id="0"/>
                <mxCell id="1" parent="0"/>
                <mxCell id="PnoAfSNucCjAz_q0_8Lv-1" value="" style="rounded=1;whiteSpace=wrap;html=1;sketch=0;hachureGap=4;fontFamily=Architects Daughter;fontSource=https%3A%2F%2Ffonts.googleapis.com%2Fcss%3Ffamily%3DArchitects%2BDaughter;fontSize=20;fillColor=#dae8fc;strokeColor=#6c8ebf;glass=0;shadow=1;" parent="1" vertex="1">
                    <mxGeometry x="1067" y="-3291" width="2827" height="5021" as="geometry"/>
                </mxCell>
                <mxCell id="J5XduCXFFePnVIruT95D-1" value="" style="rounded=1;whiteSpace=wrap;html=1;sketch=0;hachureGap=4;fontFamily=Architects Daughter;fontSource=https%3A%2F%2Ffonts.googleapis.com%2Fcss%3Ffamily%3DArchitects%2BDaughter;fontSize=20;strokeColor=#36393d;fillColor=#ffff88;shadow=1;" parent="1" vertex="1">
                    <mxGeometry x="-1249" y="-719.75" width="861" height="817.5" as="geometry"/>
                </mxCell>
                <mxCell id="7VZHQ59oPnoRE6-kQ5N1-2" value="ByName" style="text;strokeColor=none;fillColor=none;html=1;align=center;verticalAlign=middle;whiteSpace=wrap;rounded=0;sketch=1;hachureGap=4;fontFamily=Architects Daughter;fontSource=https%3A%2F%2Ffonts.googleapis.com%2Fcss%3Ffamily%3DArchitects%2BDaughter;fontSize=20;" parent="1" vertex="1">
                    <mxGeometry x="-1186" y="-686" width="299" height="28" as="geometry"/>
                </mxCell>
                <mxCell id="7VZHQ59oPnoRE6-kQ5N1-3" value="ByType" style="text;strokeColor=none;fillColor=none;html=1;align=center;verticalAlign=middle;whiteSpace=wrap;rounded=0;sketch=1;hachureGap=4;fontFamily=Architects Daughter;fontSource=https%3A%2F%2Ffonts.googleapis.com%2Fcss%3Ffamily%3DArchitects%2BDaughter;fontSize=20;" parent="1" vertex="1">
                    <mxGeometry x="-699" y="-686" width="299" height="28" as="geometry"/>
                </mxCell>
                <mxCell id="7VZHQ59oPnoRE6-kQ5N1-5" style="edgeStyle=none;curved=1;rounded=1;sketch=0;hachureGap=4;orthogonalLoop=1;jettySize=auto;html=1;fontFamily=Architects Daughter;fontSource=https%3A%2F%2Ffonts.googleapis.com%2Fcss%3Ffamily%3DArchitects%2BDaughter;fontSize=16;endArrow=open;sourcePerimeterSpacing=8;targetPerimeterSpacing=8;shape=link;shadow=1;fillColor=#cce5ff;strokeColor=#36393d;" parent="1" source="7VZHQ59oPnoRE6-kQ5N1-4" target="J5XduCXFFePnVIruT95D-1" edge="1">
                    <mxGeometry relative="1" as="geometry"/>
                </mxCell>
                <mxCell id="7VZHQ59oPnoRE6-kQ5N1-7" style="edgeStyle=none;shape=flexArrow;curved=1;rounded=1;sketch=0;hachureGap=4;orthogonalLoop=1;jettySize=auto;html=1;shadow=1;fontFamily=Architects Daughter;fontSource=https%3A%2F%2Ffonts.googleapis.com%2Fcss%3Ffamily%3DArchitects%2BDaughter;fontSize=16;endArrow=open;sourcePerimeterSpacing=8;targetPerimeterSpacing=8;fillColor=#cce5ff;strokeColor=#36393d;" parent="1" source="7VZHQ59oPnoRE6-kQ5N1-4" target="7VZHQ59oPnoRE6-kQ5N1-6" edge="1">
                    <mxGeometry relative="1" as="geometry"/>
                </mxCell>
                <mxCell id="7VZHQ59oPnoRE6-kQ5N1-4" value="&lt;font style=&quot;font-size: 20px&quot; face=&quot;Courier New&quot;&gt;如果是ByType,ByName构建PVS&lt;/font&gt;" style="rounded=1;whiteSpace=wrap;html=1;sketch=0;hachureGap=4;fontFamily=Architects Daughter;fontSource=https%3A%2F%2Ffonts.googleapis.com%2Fcss%3Ffamily%3DArchitects%2BDaughter;fontSize=20;strokeColor=#36393d;fillColor=#ffff88;shadow=1;" parent="1" vertex="1">
                    <mxGeometry x="-60" y="-365.5" width="570" height="109" as="geometry"/>
                </mxCell>
                <mxCell id="7VZHQ59oPnoRE6-kQ5N1-6" value="&lt;font face=&quot;Courier New&quot;&gt;AutowiredAnnotatedBeanPostProcessor.&lt;br style=&quot;font-size: 20px&quot;&gt;.postProcessorproperties(&lt;span style=&quot;font-size: 20px&quot;&gt;PropertyValues &lt;/span&gt;&lt;span style=&quot;font-size: 20px&quot;&gt;pvs&lt;/span&gt;&lt;span style=&quot;font-size: 20px&quot;&gt;, &lt;/span&gt;&lt;span style=&quot;font-size: 20px&quot;&gt;Object &lt;/span&gt;&lt;span style=&quot;font-size: 20px&quot;&gt;bean&lt;/span&gt;&lt;span style=&quot;font-size: 20px&quot;&gt;, &lt;/span&gt;&lt;span style=&quot;font-size: 20px&quot;&gt;String &lt;/span&gt;&lt;span style=&quot;font-size: 20px&quot;&gt;beanName&lt;/span&gt;&lt;span style=&quot;font-size: 20px&quot;&gt;)&lt;/span&gt;&lt;/font&gt;" style="rounded=1;whiteSpace=wrap;html=1;sketch=0;hachureGap=4;fontFamily=Architects Daughter;fontSource=https%3A%2F%2Ffonts.googleapis.com%2Fcss%3Ffamily%3DArchitects%2BDaughter;fontSize=20;strokeColor=#36393d;fillColor=#ffff88;shadow=1;fontColor=#000000;labelBackgroundColor=none;" parent="1" vertex="1">
                    <mxGeometry x="-243.5" y="235" width="937" height="105" as="geometry"/>
                </mxCell>
                <mxCell id="7VZHQ59oPnoRE6-kQ5N1-17" style="edgeStyle=none;shape=flexArrow;curved=1;sketch=0;hachureGap=4;orthogonalLoop=1;jettySize=auto;html=1;shadow=1;fontFamily=Architects Daughter;fontSource=https%3A%2F%2Ffonts.googleapis.com%2Fcss%3Ffamily%3DArchitects%2BDaughter;fontSize=16;endArrow=open;sourcePerimeterSpacing=8;targetPerimeterSpacing=8;strokeColor=#36393d;fillColor=#cce5ff;" parent="1" source="7VZHQ59oPnoRE6-kQ5N1-8" target="7VZHQ59oPnoRE6-kQ5N1-16" edge="1">
                    <mxGeometry relative="1" as="geometry"/>
                </mxCell>
                <mxCell id="7VZHQ59oPnoRE6-kQ5N1-8" value="PropertyDescriptor&lt;br&gt;&lt;br&gt;&lt;br&gt;&lt;br&gt;&lt;br&gt;&lt;br&gt;&lt;br&gt;&lt;br&gt;&lt;br&gt;&lt;br&gt;&lt;br&gt;&lt;br&gt;&lt;br&gt;&lt;br&gt;&lt;br&gt;&lt;br&gt;&lt;br&gt;&lt;br&gt;&lt;br&gt;&lt;br&gt;" style="rounded=1;whiteSpace=wrap;html=1;sketch=0;hachureGap=4;fontFamily=Architects Daughter;fontSource=https%3A%2F%2Ffonts.googleapis.com%2Fcss%3Ffamily%3DArchitects%2BDaughter;fontSize=20;strokeColor=#36393d;fillColor=#cdeb8b;shadow=1;" parent="1" vertex="1">
                    <mxGeometry x="-1172" y="-620" width="736" height="618" as="geometry"/>
                </mxCell>
                <mxCell id="7VZHQ59oPnoRE6-kQ5N1-10" value="&lt;div class=&quot;lake-content&quot;&gt;&lt;b&gt;readMethodRef&lt;/b&gt;&lt;br&gt;&lt;/div&gt;" style="rounded=1;whiteSpace=wrap;html=1;sketch=0;hachureGap=4;fontFamily=Architects Daughter;fontSource=https%3A%2F%2Ffonts.googleapis.com%2Fcss%3Ffamily%3DArchitects%2BDaughter;fontSize=20;strokeColor=#36393d;fillColor=#ffcc99;shadow=1;" parent="1" vertex="1">
                    <mxGeometry x="-1134" y="-324" width="252" height="102" as="geometry"/>
                </mxCell>
                <mxCell id="7VZHQ59oPnoRE6-kQ5N1-11" value="&lt;div class=&quot;lake-content&quot;&gt;&lt;b&gt;writeMethodName&lt;/b&gt;&lt;br&gt;&lt;/div&gt;" style="rounded=1;whiteSpace=wrap;html=1;sketch=0;hachureGap=4;fontFamily=Architects Daughter;fontSource=https%3A%2F%2Ffonts.googleapis.com%2Fcss%3Ffamily%3DArchitects%2BDaughter;fontSize=20;strokeColor=#36393d;fillColor=#ffcc99;shadow=1;" parent="1" vertex="1">
                    <mxGeometry x="-746" y="-178" width="252" height="102" as="geometry"/>
                </mxCell>
                <mxCell id="7VZHQ59oPnoRE6-kQ5N1-12" value="&lt;div class=&quot;lake-content&quot;&gt;&lt;b&gt;readMethodName&lt;/b&gt;&lt;br&gt;&lt;/div&gt;" style="rounded=1;whiteSpace=wrap;html=1;sketch=0;hachureGap=4;fontFamily=Architects Daughter;fontSource=https%3A%2F%2Ffonts.googleapis.com%2Fcss%3Ffamily%3DArchitects%2BDaughter;fontSize=20;strokeColor=#36393d;fillColor=#ffcc99;shadow=1;" parent="1" vertex="1">
                    <mxGeometry x="-1134" y="-178" width="252" height="102" as="geometry"/>
                </mxCell>
                <mxCell id="7VZHQ59oPnoRE6-kQ5N1-13" value="&lt;div class=&quot;lake-content&quot;&gt;&lt;b&gt;propertyTypeRef&lt;/b&gt;&lt;br&gt;&lt;/div&gt;" style="rounded=1;whiteSpace=wrap;html=1;sketch=0;hachureGap=4;fontFamily=Architects Daughter;fontSource=https%3A%2F%2Ffonts.googleapis.com%2Fcss%3Ffamily%3DArchitects%2BDaughter;fontSize=20;strokeColor=#36393d;fillColor=#ffcc99;shadow=1;" parent="1" vertex="1">
                    <mxGeometry x="-746" y="-465" width="252" height="102" as="geometry"/>
                </mxCell>
                <mxCell id="7VZHQ59oPnoRE6-kQ5N1-14" value="&lt;div class=&quot;lake-content&quot;&gt;&lt;b&gt;Name&lt;/b&gt;&lt;br&gt;&lt;/div&gt;" style="rounded=1;whiteSpace=wrap;html=1;sketch=0;hachureGap=4;fontFamily=Architects Daughter;fontSource=https%3A%2F%2Ffonts.googleapis.com%2Fcss%3Ffamily%3DArchitects%2BDaughter;fontSize=20;strokeColor=#36393d;fillColor=#ffcc99;shadow=1;" parent="1" vertex="1">
                    <mxGeometry x="-1134" y="-465" width="252" height="102" as="geometry"/>
                </mxCell>
                <mxCell id="7VZHQ59oPnoRE6-kQ5N1-15" value="&lt;div class=&quot;lake-content&quot;&gt;&lt;b&gt;writeMethodRef&lt;/b&gt;&lt;br&gt;&lt;/div&gt;" style="rounded=1;whiteSpace=wrap;html=1;sketch=0;hachureGap=4;fontFamily=Architects Daughter;fontSource=https%3A%2F%2Ffonts.googleapis.com%2Fcss%3Ffamily%3DArchitects%2BDaughter;fontSize=20;strokeColor=#36393d;fillColor=#ffcc99;shadow=1;" parent="1" vertex="1">
                    <mxGeometry x="-746" y="-324" width="252" height="102" as="geometry"/>
                </mxCell>
                <mxCell id="7VZHQ59oPnoRE6-kQ5N1-16" value="" style="rounded=1;whiteSpace=wrap;html=1;sketch=0;hachureGap=4;fontFamily=Architects Daughter;fontSource=https%3A%2F%2Ffonts.googleapis.com%2Fcss%3Ffamily%3DArchitects%2BDaughter;fontSize=20;strokeColor=#36393d;fillColor=#cdeb8b;shadow=1;" parent="1" vertex="1">
                    <mxGeometry x="-2128" y="-562.5" width="727" height="503" as="geometry"/>
                </mxCell>
                <mxCell id="7VZHQ59oPnoRE6-kQ5N1-18" value="&lt;b&gt;Name:&amp;nbsp;&amp;nbsp;&lt;br&gt;&lt;/b&gt;&lt;ol&gt;&lt;li&gt;&lt;strong&gt;如果方法名字以“get”开头，比如“getXXX”,那么name=XXX&lt;/strong&gt;&lt;/li&gt;&lt;li&gt;&lt;strong&gt;如果方法名字以“is”开头，比如“isXXX”,那么name=XXX&lt;/strong&gt;&lt;/li&gt;&lt;li&gt;&lt;strong&gt;如果方法名字以“set”开头，比如“setXXX”,那么name=XXX&lt;/strong&gt;&lt;/li&gt;&lt;/ol&gt;" style="text;strokeColor=none;fillColor=none;html=1;align=center;verticalAlign=middle;whiteSpace=wrap;rounded=0;sketch=1;hachureGap=4;fontFamily=Courier New;fontSize=18;" parent="1" vertex="1">
                    <mxGeometry x="-2080" y="-515.5" width="591" height="114" as="geometry"/>
                </mxCell>
                <mxCell id="7VZHQ59oPnoRE6-kQ5N1-22" value="&lt;div class=&quot;lake-content&quot;&gt;&lt;strong&gt;propertyTypeRef：&lt;/strong&gt;&lt;/div&gt;&lt;div class=&quot;lake-content&quot;&gt;&lt;strong&gt;如果有get方法那么对应的就是返回值的类型，如果是set方法那么对应的就是set方法中唯一参数的类型&lt;/strong&gt;&lt;/div&gt;" style="text;strokeColor=none;fillColor=none;html=1;align=center;verticalAlign=middle;whiteSpace=wrap;rounded=0;sketch=1;hachureGap=4;fontFamily=Courier New;fontSize=18;" parent="1" vertex="1">
                    <mxGeometry x="-2080" y="-390.5" width="591" height="114" as="geometry"/>
                </mxCell>
                <mxCell id="7VZHQ59oPnoRE6-kQ5N1-23" value="&lt;div class=&quot;lake-content&quot;&gt;&lt;p id=&quot;2ae65270e4619b80a2168278d7bbb812&quot; class=&quot;ne-p&quot; style=&quot;margin: 0 ; padding: 0 ; min-height: 24px&quot;&gt;&lt;strong&gt;get方法的定义是：&lt;/strong&gt;&lt;span class=&quot;ne-text&quot;&gt; &lt;/span&gt;&lt;span class=&quot;ne-text&quot; style=&quot;background-color: transparent&quot;&gt;方法参数个数为0个，并且 （方法名字以&quot;get&quot;开头 或者 方法名字以&quot;is&quot;开头并且方法的返回类型为boolean）&lt;/span&gt;&lt;/p&gt;&lt;p id=&quot;3cf28cefe21f03a700b9a3fa19473e33&quot; class=&quot;ne-p&quot; style=&quot;margin: 0 ; padding: 0 ; min-height: 24px&quot;&gt;&lt;br&gt;&lt;/p&gt;&lt;p id=&quot;d67a6d46a1cc9c59326b38a72fca9aa0&quot; class=&quot;ne-p&quot; style=&quot;margin: 0 ; padding: 0 ; min-height: 24px&quot;&gt;&lt;strong&gt;set方法的定义是：&lt;/strong&gt;&lt;span class=&quot;ne-text&quot;&gt;方法参数个数为1个，并且 （方法名字以&quot;set&quot;开头并且方法返回类型为void）&lt;/span&gt;&lt;/p&gt;&lt;/div&gt;" style="text;strokeColor=none;fillColor=none;html=1;align=center;verticalAlign=middle;whiteSpace=wrap;rounded=0;sketch=1;hachureGap=4;fontFamily=Courier New;fontSize=18;" parent="1" vertex="1">
                    <mxGeometry x="-2084" y="-254.5" width="599" height="143" as="geometry"/>
                </mxCell>
                <mxCell id="7VZHQ59oPnoRE6-kQ5N1-25" style="edgeStyle=none;shape=flexArrow;curved=1;sketch=0;hachureGap=4;orthogonalLoop=1;jettySize=auto;html=1;shadow=1;fontFamily=Courier New;fontSize=20;fontColor=#000000;endArrow=open;sourcePerimeterSpacing=8;targetPerimeterSpacing=8;strokeColor=#36393d;fillColor=#cce5ff;" parent="1" source="7VZHQ59oPnoRE6-kQ5N1-24" target="7VZHQ59oPnoRE6-kQ5N1-4" edge="1">
                    <mxGeometry relative="1" as="geometry"/>
                </mxCell>
                <mxCell id="7VZHQ59oPnoRE6-kQ5N1-24" value="&lt;font style=&quot;font-size: 20px;&quot;&gt;AutowiredAnnotatedBeanPostProcessor.&lt;br style=&quot;font-size: 20px;&quot;&gt;.postProcessMergedBeanDefinition(&lt;/font&gt;&lt;span style=&quot;font-size: 20px;&quot;&gt;RootBeanDefinition &lt;/span&gt;&lt;span style=&quot;font-size: 20px;&quot;&gt;beanDefinition&lt;/span&gt;&lt;span style=&quot;font-size: 20px;&quot;&gt;, &lt;/span&gt;&lt;span style=&quot;font-size: 20px;&quot;&gt;Class&lt;/span&gt;&lt;span style=&quot;font-size: 20px;&quot;&gt;&amp;lt;?&amp;gt; &lt;/span&gt;&lt;span style=&quot;font-size: 20px;&quot;&gt;beanType&lt;/span&gt;&lt;span style=&quot;font-size: 20px;&quot;&gt;, &lt;/span&gt;&lt;span style=&quot;font-size: 20px;&quot;&gt;String &lt;/span&gt;&lt;span style=&quot;font-size: 20px;&quot;&gt;beanName&lt;/span&gt;&lt;span style=&quot;font-size: 20px;&quot;&gt;)&lt;/span&gt;" style="rounded=1;whiteSpace=wrap;html=1;sketch=0;hachureGap=4;fontFamily=Courier New;fontSize=20;strokeColor=#36393d;fillColor=#ffff88;shadow=1;fontColor=#000000;labelBackgroundColor=none;" parent="1" vertex="1">
                    <mxGeometry x="-426.5" y="-1131" width="1303" height="105" as="geometry"/>
                </mxCell>
                <mxCell id="7VZHQ59oPnoRE6-kQ5N1-26" value="" style="rounded=1;whiteSpace=wrap;html=1;sketch=0;hachureGap=4;fontFamily=Courier New;fontSize=20;strokeColor=#36393d;fillColor=#ffff88;shadow=1;fontColor=#000000;labelBackgroundColor=none;align=left;" parent="1" vertex="1">
                    <mxGeometry x="1317" y="-1609.5" width="2389" height="1008" as="geometry"/>
                </mxCell>
                <mxCell id="7VZHQ59oPnoRE6-kQ5N1-29" value="&lt;font face=&quot;Courier New&quot;&gt;AutowiredMethodElement&lt;br&gt;&lt;/font&gt;" style="rounded=1;whiteSpace=wrap;html=1;sketch=0;hachureGap=4;fontFamily=Architects Daughter;fontSource=https%3A%2F%2Ffonts.googleapis.com%2Fcss%3Ffamily%3DArchitects%2BDaughter;fontSize=20;strokeColor=#36393d;fillColor=#cdeb8b;shadow=1;" parent="1" vertex="1">
                    <mxGeometry x="1443" y="-2694" width="564" height="102" as="geometry"/>
                </mxCell>
                <mxCell id="PnoAfSNucCjAz_q0_8Lv-2" value="&lt;font style=&quot;font-size: 40px&quot;&gt;&lt;br&gt;AutowiredAnnotationBeanPostProcessor&lt;/font&gt;" style="text;strokeColor=none;fillColor=none;html=1;align=center;verticalAlign=middle;whiteSpace=wrap;rounded=0;shadow=1;glass=0;sketch=0;hachureGap=4;fontFamily=Architects Daughter;fontSource=https%3A%2F%2Ffonts.googleapis.com%2Fcss%3Ffamily%3DArchitects%2BDaughter;fontSize=20;fontStyle=1" parent="1" vertex="1">
                    <mxGeometry x="1828" y="-3185" width="1437" height="134" as="geometry"/>
                </mxCell>
                <mxCell id="PnoAfSNucCjAz_q0_8Lv-3" value="寻找注入点" style="text;strokeColor=none;fillColor=none;html=1;align=center;verticalAlign=middle;whiteSpace=wrap;rounded=0;shadow=1;glass=0;sketch=0;hachureGap=4;fontFamily=Architects Daughter;fontSource=https%3A%2F%2Ffonts.googleapis.com%2Fcss%3Ffamily%3DArchitects%2BDaughter;fontSize=40;fontStyle=1" parent="1" vertex="1">
                    <mxGeometry x="1869" y="-1536.5" width="1307" height="30" as="geometry"/>
                </mxCell>
                <mxCell id="PnoAfSNucCjAz_q0_8Lv-5" value="" style="rounded=1;whiteSpace=wrap;html=1;sketch=0;hachureGap=4;fontFamily=Courier New;fontSize=20;strokeColor=#36393d;fillColor=#ffff88;shadow=1;fontColor=#000000;labelBackgroundColor=none;align=left;" parent="1" vertex="1">
                    <mxGeometry x="1289" y="-2898" width="2389" height="1008" as="geometry"/>
                </mxCell>
                <mxCell id="PnoAfSNucCjAz_q0_8Lv-6" value="Field" style="text;strokeColor=none;fillColor=none;html=1;align=center;verticalAlign=middle;whiteSpace=wrap;rounded=0;shadow=1;glass=0;sketch=0;hachureGap=4;fontFamily=Courier New;fontSize=40;fontStyle=1" parent="1" vertex="1">
                    <mxGeometry x="1905" y="-2848" width="1151" height="30" as="geometry"/>
                </mxCell>
                <mxCell id="PnoAfSNucCjAz_q0_8Lv-7" value="&lt;pre style=&quot;font-family: &amp;#34;fira code&amp;#34; , monospace&quot;&gt;&lt;br&gt;&lt;/pre&gt;" style="rounded=1;whiteSpace=wrap;html=1;sketch=0;hachureGap=4;fontFamily=Architects Daughter;fontSource=https%3A%2F%2Ffonts.googleapis.com%2Fcss%3Ffamily%3DArchitects%2BDaughter;fontSize=20;strokeColor=#36393d;fillColor=#cdeb8b;shadow=1;" parent="1" vertex="1">
                    <mxGeometry x="1346" y="-2681" width="1037" height="722" as="geometry"/>
                </mxCell>
                <mxCell id="PnoAfSNucCjAz_q0_8Lv-8" value="&lt;pre style=&quot;font-family: &amp;quot;fira code&amp;quot;, monospace; font-size: 26px;&quot;&gt;Map&amp;lt;String, InjectionMetadata&amp;gt; injectionMetadataCache&lt;/pre&gt;" style="text;strokeColor=none;fillColor=none;html=1;align=center;verticalAlign=middle;whiteSpace=wrap;rounded=0;shadow=1;glass=0;labelBackgroundColor=none;sketch=0;hachureGap=4;fontFamily=Architects Daughter;fontSource=https%3A%2F%2Ffonts.googleapis.com%2Fcss%3Ffamily%3DArchitects%2BDaughter;fontSize=26;fontColor=#000000;fontStyle=1" parent="1" vertex="1">
                    <mxGeometry x="1365.75" y="-2635" width="959.5" height="30" as="geometry"/>
                </mxCell>
                <mxCell id="PnoAfSNucCjAz_q0_8Lv-10" value="&lt;div class=&quot;lake-content&quot;&gt;&lt;br&gt;&lt;/div&gt;" style="rounded=1;whiteSpace=wrap;html=1;sketch=0;hachureGap=4;fontFamily=Architects Daughter;fontSource=https%3A%2F%2Ffonts.googleapis.com%2Fcss%3Ffamily%3DArchitects%2BDaughter;fontSize=20;strokeColor=#36393d;fillColor=#ffcc99;shadow=1;" parent="1" vertex="1">
                    <mxGeometry x="1375" y="-2550" width="404" height="536" as="geometry"/>
                </mxCell>
                <mxCell id="PnoAfSNucCjAz_q0_8Lv-11" value="String" style="text;strokeColor=none;fillColor=none;html=1;align=center;verticalAlign=middle;whiteSpace=wrap;rounded=0;shadow=1;glass=0;labelBackgroundColor=none;sketch=0;hachureGap=4;fontFamily=Courier New;fontSize=26;fontColor=#000000;fontStyle=1" parent="1" vertex="1">
                    <mxGeometry x="1508" y="-2518" width="138" height="83" as="geometry"/>
                </mxCell>
                <mxCell id="PnoAfSNucCjAz_q0_8Lv-12" value="Bean Name &lt;br&gt;或者Class Name" style="text;strokeColor=none;fillColor=none;html=1;align=center;verticalAlign=middle;whiteSpace=wrap;rounded=0;shadow=1;glass=0;labelBackgroundColor=none;sketch=0;hachureGap=4;fontFamily=Courier New;fontSize=26;fontColor=#000000;" parent="1" vertex="1">
                    <mxGeometry x="1401.25" y="-2184" width="351.5" height="30" as="geometry"/>
                </mxCell>
                <mxCell id="PnoAfSNucCjAz_q0_8Lv-13" value="&lt;div class=&quot;lake-content&quot;&gt;&lt;br&gt;&lt;/div&gt;" style="rounded=1;whiteSpace=wrap;html=1;sketch=0;hachureGap=4;fontFamily=Architects Daughter;fontSource=https%3A%2F%2Ffonts.googleapis.com%2Fcss%3Ffamily%3DArchitects%2BDaughter;fontSize=20;strokeColor=#36393d;fillColor=#ffcc99;shadow=1;" parent="1" vertex="1">
                    <mxGeometry x="1831" y="-2550" width="509" height="536" as="geometry"/>
                </mxCell>
                <mxCell id="PnoAfSNucCjAz_q0_8Lv-15" value="&lt;pre style=&quot;font-family: &amp;quot;fira code&amp;quot; , monospace&quot;&gt;InjectionMetadata&lt;/pre&gt;" style="text;strokeColor=none;fillColor=none;html=1;align=center;verticalAlign=middle;whiteSpace=wrap;rounded=0;shadow=1;glass=0;labelBackgroundColor=none;sketch=0;hachureGap=4;fontFamily=Courier New;fontSize=26;fontColor=#000000;fontStyle=1" parent="1" vertex="1">
                    <mxGeometry x="1923" y="-2525.5" width="325" height="49" as="geometry"/>
                </mxCell>
                <mxCell id="PnoAfSNucCjAz_q0_8Lv-16" value="&lt;pre style=&quot;font-family: &amp;#34;fira code&amp;#34; , monospace&quot;&gt;Collection&amp;lt;InjectedElement&amp;gt;&lt;/pre&gt;&lt;pre style=&quot;font-family: &amp;#34;fira code&amp;#34; , monospace&quot;&gt; injectedElements&lt;/pre&gt;" style="text;strokeColor=none;fillColor=none;html=1;align=center;verticalAlign=middle;whiteSpace=wrap;rounded=0;shadow=1;glass=0;labelBackgroundColor=none;sketch=0;hachureGap=4;fontFamily=Courier New;fontSize=26;fontColor=#000000;" parent="1" vertex="1">
                    <mxGeometry x="1826" y="-2302" width="519" height="161" as="geometry"/>
                </mxCell>
                <mxCell id="PnoAfSNucCjAz_q0_8Lv-19" value="&lt;pre&gt;&lt;font face=&quot;fira code, monospace&quot;&gt;Set&amp;lt;InjectedElement&amp;gt;&lt;/font&gt;&lt;/pre&gt;&lt;pre&gt;&lt;font face=&quot;fira code, monospace&quot;&gt; checkedElements&lt;br&gt;&lt;/font&gt;&lt;/pre&gt;" style="text;strokeColor=none;fillColor=none;html=1;align=center;verticalAlign=middle;whiteSpace=wrap;rounded=0;shadow=1;glass=0;labelBackgroundColor=none;sketch=0;hachureGap=4;fontFamily=Courier New;fontSize=26;fontColor=#000000;" parent="1" vertex="1">
                    <mxGeometry x="1923" y="-2117" width="325" height="49" as="geometry"/>
                </mxCell>
                <mxCell id="PnoAfSNucCjAz_q0_8Lv-21" value="&lt;pre&gt;&lt;font face=&quot;fira code, monospace&quot;&gt;Class&amp;lt;?&amp;gt; targetClass&lt;br&gt;&lt;/font&gt;&lt;/pre&gt;" style="text;strokeColor=none;fillColor=none;html=1;align=center;verticalAlign=middle;whiteSpace=wrap;rounded=0;shadow=1;glass=0;labelBackgroundColor=none;sketch=0;hachureGap=4;fontFamily=Courier New;fontSize=26;fontColor=#000000;" parent="1" vertex="1">
                    <mxGeometry x="1923" y="-2374" width="325" height="49" as="geometry"/>
                </mxCell>
                <mxCell id="PnoAfSNucCjAz_q0_8Lv-23" value="&lt;ol style=&quot;font-size: 37px&quot;&gt;&lt;ol&gt;&lt;li&gt;遍历当前类的所有Field(属性字段)&lt;/li&gt;&lt;li&gt;如果该Field上带有&lt;b&gt;autowiredAnnotatedTypes&lt;/b&gt;中的任意一个注解,则是一个注入点&lt;/li&gt;&lt;li&gt;如果该Field被static修饰,则不会注入&lt;/li&gt;&lt;li&gt;获取@Auwotired中的required属性的值&lt;/li&gt;&lt;li&gt;将&lt;b&gt;Field+required&lt;/b&gt;构造为&lt;b&gt;AutowiredFieldElement&lt;/b&gt;对象,并保存到currElement中.&lt;/li&gt;&lt;li&gt;遍历当前类所有的Method(方法)&lt;/li&gt;&lt;li&gt;判断当前方式是否桥接方法,如果是则找到原方法&lt;/li&gt;&lt;li&gt;如果该Method上带有autowiredAnnotatedTypes中的任意一个注解,则是一个注入点&lt;/li&gt;&lt;li&gt;如果该Method被static修饰,则不会注入&lt;/li&gt;&lt;li&gt;获取@Auwotired中的required属性的值&lt;/li&gt;&lt;li&gt;将Method+required+PropertyDescripter构造为&lt;b&gt;AutowiredFieldElement&lt;/b&gt;对象,并保存到currElement中&lt;br&gt;&lt;/li&gt;&lt;li&gt;合并currelement 到 element中&lt;/li&gt;&lt;li&gt;获取当前类的父类,重复以上步骤,直到当前类为null&lt;/li&gt;&lt;li&gt;将element保存到InjectionMetadata对象中&lt;/li&gt;&lt;li&gt;缓存&amp;lt;BeanName|ClashhName, InjectMetadata&amp;gt;&lt;/li&gt;&lt;/ol&gt;&lt;/ol&gt;" style="text;strokeColor=none;fillColor=none;html=1;align=left;verticalAlign=middle;whiteSpace=wrap;rounded=0;shadow=1;glass=0;labelBackgroundColor=none;sketch=0;hachureGap=4;fontFamily=Courier New;fontSize=26;fontColor=#000000;" parent="1" vertex="1">
                    <mxGeometry x="1368" y="-1425" width="1949" height="745" as="geometry"/>
                </mxCell>
                <mxCell id="PnoAfSNucCjAz_q0_8Lv-24" value="&lt;pre style=&quot;font-family: &amp;#34;fira code&amp;#34; , monospace&quot;&gt;&lt;br&gt;&lt;/pre&gt;" style="rounded=1;whiteSpace=wrap;html=1;sketch=0;hachureGap=4;fontFamily=Architects Daughter;fontSource=https%3A%2F%2Ffonts.googleapis.com%2Fcss%3Ffamily%3DArchitects%2BDaughter;fontSize=20;strokeColor=#36393d;fillColor=#cdeb8b;shadow=1;" parent="1" vertex="1">
                    <mxGeometry x="2418" y="-2681" width="642" height="722" as="geometry"/>
                </mxCell>
                <mxCell id="PnoAfSNucCjAz_q0_8Lv-25" value="&lt;pre style=&quot;font-family: &amp;#34;fira code&amp;#34; , monospace ; font-size: 26px&quot;&gt;&lt;pre style=&quot;font-family: &amp;#34;fira code&amp;#34; , monospace ; font-size: 26px&quot;&gt;&lt;span style=&quot;font-size: 26px&quot;&gt;Set&lt;/span&gt;&lt;span style=&quot;font-size: 26px&quot;&gt;&amp;lt;&lt;/span&gt;&lt;span style=&quot;font-size: 26px&quot;&gt;Class&lt;/span&gt;&lt;span style=&quot;font-size: 26px&quot;&gt;&amp;lt;? &lt;/span&gt;&lt;span style=&quot;font-size: 26px&quot;&gt;extends &lt;/span&gt;&lt;span style=&quot;font-size: 26px&quot;&gt;Annotation&lt;/span&gt;&lt;span style=&quot;font-size: 26px&quot;&gt;&amp;gt;&amp;gt;&lt;/span&gt;&lt;/pre&gt;&lt;pre style=&quot;font-family: &amp;#34;fira code&amp;#34; , monospace ; font-size: 26px&quot;&gt;&lt;span style=&quot;font-size: 26px&quot;&gt;autowiredAnnotationTypes&lt;/span&gt;&lt;/pre&gt;&lt;/pre&gt;" style="text;strokeColor=none;fillColor=none;html=1;align=center;verticalAlign=middle;whiteSpace=wrap;rounded=0;shadow=1;glass=0;labelBackgroundColor=none;sketch=0;hachureGap=4;fontFamily=Architects Daughter;fontSource=https%3A%2F%2Ffonts.googleapis.com%2Fcss%3Ffamily%3DArchitects%2BDaughter;fontSize=26;fontColor=#000000;fontStyle=1" parent="1" vertex="1">
                    <mxGeometry x="2453" y="-2645" width="572" height="146" as="geometry"/>
                </mxCell>
                <mxCell id="PnoAfSNucCjAz_q0_8Lv-26" value="&lt;div class=&quot;lake-content&quot; style=&quot;font-size: 26px;&quot;&gt;&lt;pre style=&quot;font-family: &amp;quot;fira code&amp;quot;, monospace; font-size: 26px;&quot;&gt;&lt;span style=&quot;font-size: 26px;&quot;&gt;Autowired&lt;/span&gt;&lt;span style=&quot;font-size: 26px;&quot;&gt;.&lt;/span&gt;&lt;span style=&quot;font-size: 26px;&quot;&gt;class&lt;/span&gt;&lt;/pre&gt;&lt;/div&gt;" style="rounded=1;whiteSpace=wrap;html=1;sketch=0;hachureGap=4;fontFamily=Architects Daughter;fontSource=https%3A%2F%2Ffonts.googleapis.com%2Fcss%3Ffamily%3DArchitects%2BDaughter;fontSize=26;strokeColor=#36393d;fillColor=#ffcc99;shadow=1;fontColor=#000000;labelBackgroundColor=none;" parent="1" vertex="1">
                    <mxGeometry x="2457" y="-2490" width="586" height="109" as="geometry"/>
                </mxCell>
                <mxCell id="PnoAfSNucCjAz_q0_8Lv-27" value="&lt;pre style=&quot;font-family: &amp;quot;fira code&amp;quot;, monospace; font-size: 26px;&quot;&gt;&lt;span style=&quot;font-size: 26px;&quot;&gt;Value&lt;/span&gt;&lt;span style=&quot;font-size: 26px;&quot;&gt;.&lt;/span&gt;&lt;span style=&quot;font-size: 26px;&quot;&gt;class&lt;/span&gt;&lt;/pre&gt;" style="rounded=1;whiteSpace=wrap;html=1;sketch=0;hachureGap=4;fontFamily=Architects Daughter;fontSource=https%3A%2F%2Ffonts.googleapis.com%2Fcss%3Ffamily%3DArchitects%2BDaughter;fontSize=26;strokeColor=#36393d;fillColor=#ffcc99;shadow=1;fontColor=#000000;labelBackgroundColor=none;" parent="1" vertex="1">
                    <mxGeometry x="2457" y="-2330" width="586" height="109" as="geometry"/>
                </mxCell>
                <mxCell id="PnoAfSNucCjAz_q0_8Lv-28" value="&lt;div class=&quot;lake-content&quot; style=&quot;font-size: 26px&quot;&gt;&lt;pre style=&quot;font-family: &amp;#34;fira code&amp;#34; , monospace ; font-size: 26px&quot;&gt;&lt;span style=&quot;font-size: 26px&quot;&gt;Inject.class&lt;/span&gt;&lt;/pre&gt;&lt;/div&gt;" style="rounded=1;whiteSpace=wrap;html=1;sketch=0;hachureGap=4;fontFamily=Architects Daughter;fontSource=https%3A%2F%2Ffonts.googleapis.com%2Fcss%3Ffamily%3DArchitects%2BDaughter;fontSize=26;strokeColor=#36393d;fillColor=#ffcc99;shadow=1;fontColor=#000000;labelBackgroundColor=none;" parent="1" vertex="1">
                    <mxGeometry x="2457" y="-2150" width="586" height="109" as="geometry"/>
                </mxCell>
            </root>
        </mxGraphModel>
    </diagram>
</mxfile>